<svg xmlns="http://www.w3.org/2000/svg" viewBox="0 0 64 64" width="64" height="64">
    <title>pluginIcon</title>
    <rect width="64" height="64" style="fill:#03a9f4"/>
    <rect x="6" y="6" width="52" height="52" style="fill:#01579B"/>
    <path d="M36.15,17.89,35.94,23q-7.31-.37-13.24-.37.3,4,.3,8.88,4.52,0,10.27-.23v4.85q-5.81-.21-10.27-.21,0,6.63.21,12.47H16.74q.3-7.08.3-16,0-8.53-.3-14.55Z" style="fill:#03a9f4"/>
    <path d="M46.18,48.41h-6.3q.33-4.85.33-11.13a65.9,65.9,0,0,0-.8-10.92l6.75-.68q-.3,4.55-.3,11.6Q45.85,43.3,46.18,48.41Zm1.08-29.34a4,4,0,0,1-1.09,2.79,3.9,3.9,0,0,1-3,1.2,3.27,3.27,0,0,1-2.57-1,3.59,3.59,0,0,1-.93-2.48,3.93,3.93,0,0,1,1.09-2.77,4,4,0,0,1,3.06-1.17,3.25,3.25,0,0,1,2.57,1A3.57,3.57,0,0,1,47.26,19.06Z" style="fill:#03a9f4"/>
</svg>